<svg width="25" height="25" viewBox="0 0 25 25" fill="none" xmlns="http://www.w3.org/2000/svg">
<g clip-path="url(#clip0_17_515)">
<path d="M23.6125 13.7947L18.7803 4.49353L18.777 4.48713L18.7734 4.48088C18.2875 3.62837 17.3741 3.05624 16.3172 3.05624H9.38087C8.20924 3.05624 7.19889 3.77392 6.77662 4.79749L2.10087 13.7939C1.77865 14.4175 2.01562 15.1915 2.6446 15.5166L4.34114 16.3982C4.96422 16.7201 5.73731 16.4838 6.06298 15.856L6.06398 15.8541L6.41711 15.1881V20.3248C6.41711 21.033 6.99333 21.5817 7.68728 21.5817H17.7345C18.4358 21.5817 19.0092 21.0082 19.0092 20.3071V14.6485L19.6578 15.8569C19.9837 16.484 20.7556 16.7203 21.3784 16.3985L21.3798 16.3979L23.068 15.5167C23.6966 15.1913 23.9346 14.4182 23.6125 13.7947Z" fill="white" stroke="#464C4F" stroke-linejoin="round"/>
<path d="M10.3295 3.42676H15.3688L12.8491 9.61469L10.3295 3.42676Z" fill="#00A6ED"/>
<path d="M16.9397 5.77592L16.5618 4.34568C16.421 3.80468 15.9319 3.42676 15.3686 3.42676L12.849 9.61469L10.3293 3.42676C9.76613 3.42676 9.27702 3.80468 9.13621 4.34568L8.7731 5.77592C8.73601 5.90932 8.8398 6.04272 8.9732 6.04272H9.81062C10.0032 6.04272 10.0922 6.27243 9.95882 6.40583L9.19551 7.13953C9.1066 7.22104 9.1066 7.36184 9.19551 7.44335L12.8564 10.993L16.5173 7.44335C16.6062 7.36184 16.6062 7.22104 16.5173 7.13953L15.754 6.40583C15.6132 6.27243 15.7095 6.04272 15.9022 6.04272H16.7396C16.873 6.04272 16.9693 5.90932 16.9397 5.77592Z" fill="#464C4F"/>
<path d="M12.5172 21.2124V5.64993H13.2582V21.2124H12.5172Z" fill="#00A6ED"/>
<path d="M11.2203 16.766H7.51495V16.6555C7.51495 16.311 7.84278 16.0249 8.25448 16.0249H10.4808C10.8848 16.0249 11.2203 16.3045 11.2203 16.6555V16.766Z" fill="#464C4F"/>
<path d="M17.8899 16.766H14.1846V16.6555C14.1846 16.311 14.5125 16.0249 14.9241 16.0249H17.1504C17.5545 16.0249 17.8899 16.3045 17.8899 16.6555V16.766Z" fill="#464C4F"/>
<path d="M16.8802 14.1352H15.1943C14.6385 14.1352 14.1846 13.6669 14.1846 13.0933V10.8374H17.8899V13.0933C17.8899 13.6764 17.436 14.1352 16.8802 14.1352Z" fill="#464C4F"/>
</g>
<defs>
<clipPath id="clip0_17_515">
<rect width="24" height="24" fill="white" transform="translate(0.856445 0.318993)"/>
</clipPath>
</defs>
</svg>
