<svg width="24" height="24" viewBox="0 0 24 24" fill="none" xmlns="http://www.w3.org/2000/svg">
<path d="M9.01109 5.59673C9.01109 5.59673 6.8021 3.67242 6.58957 3.45987C6.37511 3.24543 5.84185 2.85448 5.94812 2.56982C6.0544 2.28516 7.83638 1.57162 9.0832 1.323C10.33 1.07439 12.9223 0.681573 15.2376 1.74999C17.5528 2.81842 19.4145 4.24364 21.0523 6.87961C22.6901 9.51557 23.1227 13.1877 23.2252 15.2145C23.3315 17.3457 22.5363 20.384 22.5363 20.384L22.1909 20.9134L9.01109 5.59673Z" fill="#464C4F"/>
<path d="M23.0772 17.6208C22.9368 19.1884 22.5344 20.4162 22.5344 20.4162L22.2498 21.0216L9.06803 5.70302L10.9867 5.16784L8.54236 1.45585C9.00351 1.26229 9.92583 1.08199 10.9677 1.08199L12.2297 6.03702L13.8523 1.27557C14.5544 1.37614 15.6627 1.89614 15.917 2.084L13.4727 7.17376L14.247 7.45463L17.4921 3.03288C17.9457 3.26631 18.2474 3.48645 18.6004 3.88686L15.3154 8.20234L16.3838 8.9899L19.7903 5.11661C20.2647 5.56448 20.6044 6.02753 20.9593 6.71261L17.6003 9.87236L18.2417 10.9275L21.8892 8.52307C22.1093 8.96334 22.2289 9.25179 22.3105 9.6655L18.682 11.8213L19.5645 12.8101L22.7166 11.0869C22.8703 11.5006 22.9576 11.8479 22.9766 12.3299L19.6043 14.0265L20.1661 15.2961L23.1911 14.2011C23.284 14.6547 23.2916 14.9033 23.2309 15.3493L20.6595 16.2848L21.2743 17.8201L23.0772 17.6208Z" fill="#DFDFE0"/>
<path d="M10.5597 4.87559C10.5597 4.87559 9.32992 4.92872 8.55565 5.51702C7.78138 6.10531 6.28594 7.62732 5.56479 8.4813C4.84363 9.33529 3.66705 10.8858 3.66705 10.8858L5.18904 15.5618L6.1512 16.8447C6.1512 16.8447 7.88762 17.0857 9.38306 16.6037C10.8785 16.1235 11.8406 15.429 11.8406 15.429C11.8406 15.429 11.5465 17.2982 11.3055 18.9284C11.0645 20.5585 10.7627 22.536 10.8956 22.6954C11.0284 22.8548 13.8693 23.0161 16.7558 22.9364C19.6423 22.8567 22.2593 22.6689 22.3921 22.536C22.525 22.4032 22.9273 18.6893 21.1092 13.9601C19.2912 9.23092 16.2244 7.11871 15.9303 6.93274C15.6361 6.74486 14.7821 6.34444 14.7821 6.34444C14.7821 6.34444 14.8884 4.04627 14.247 2.89814C13.6056 1.75001 13.4575 1.18067 13.0438 1.13514C12.5504 1.08199 11.5882 2.32312 11.2542 2.84499C10.8329 3.50162 10.5597 4.87559 10.5597 4.87559Z" fill="#2F2F2F"/>
<path d="M4.1073 10.9009L6.09804 8.41678C6.09804 8.41678 6.40547 8.80392 5.88358 9.56491C5.5363 10.0735 4.74873 11.0471 4.74873 11.0471L4.1073 10.9009Z" fill="white"/>
<path d="M5.23458 14.537C5.23458 14.537 7.18925 12.6734 8.43986 12.9163C10.0074 13.22 9.69616 15.8199 9.69616 15.8199C9.69616 15.8199 9.43808 15.9527 9.19706 16.0248C9.02816 16.0742 8.6619 16.1368 8.6619 16.1368C8.6619 16.1368 8.81372 14.5199 8.1552 14.2353C7.49668 13.9506 6.78312 14.2713 6.23089 14.592C5.67866 14.9128 5.48317 15.019 5.48317 15.019L5.23458 14.537Z" fill="white"/>
<path d="M6.03546 15.9357C6.03546 15.9357 6.46246 15.4005 6.99762 15.4897C7.53278 15.5789 7.55934 16.3095 7.55934 16.3095C7.55934 16.3095 7.15892 16.3361 6.89133 16.3361C6.62374 16.3361 5.91211 16.3095 5.91211 16.3095L6.03546 15.9357Z" fill="white"/>
<path d="M5.23458 11.884L5.51924 12.979C5.51924 12.979 7.13042 10.9939 9.5083 11.8384C11.8862 12.6829 10.888 15.169 10.888 15.169L11.5389 14.8653C11.5389 14.8653 11.7894 13.7684 11.5749 12.996C11.2903 11.9713 10.4799 11.5006 10.6849 10.4587C10.8898 9.41689 11.0758 8.97092 11.2371 8.69575C11.3282 8.53823 11.7894 8.04483 12.0437 8.42817C12.4669 9.06581 11.816 9.39981 11.9507 10.584C12.0854 11.7682 12.446 11.6202 12.8407 13.0055C13.0001 13.5673 12.8142 14.7325 12.8047 15.0893C12.7952 15.446 12.6718 16.1482 12.6718 16.1482C12.6718 16.1482 14.9871 14.8406 15.7348 14.3131C17.1334 13.3281 19.0824 11.5519 19.0824 11.5519C19.0824 11.5519 18.9989 11.3412 18.8414 11.0983C18.7218 10.9104 18.6099 10.7871 18.6099 10.7871C18.6099 10.7871 17.1809 11.8289 16.5034 12.3015C15.8259 12.774 14.0591 13.869 13.9073 13.9582C13.7554 14.0474 13.4898 14.2258 13.4177 14.1461C13.2981 14.0132 13.6625 13.0909 13.8313 12.5558C14.0003 12.0206 14.7707 10.0488 15.0288 9.33719C15.2869 8.62554 15.6968 7.64439 15.6968 7.64439C15.6968 7.64439 15.4217 7.3958 15.2338 7.3066C15.0459 7.2174 14.6379 7.06558 14.6379 7.06558C14.6379 7.06558 14.1749 8.24029 14.0154 8.49079C13.856 8.73941 13.4537 9.51559 13.0988 9.25748C12.742 8.9994 12.7515 7.80572 13.3664 6.98588C13.6947 6.54751 14.0875 6.40707 14.1407 5.19631C14.1938 3.98556 13.7896 3.20178 13.6055 2.79186C13.4006 2.33262 13.1956 1.94548 13.0172 1.95497C12.8388 1.96445 12.2296 2.68559 11.9621 3.08601C11.7211 3.44659 11.5028 3.79008 11.3965 4.56437C11.2903 5.33866 11.2808 5.41075 11.2808 5.41075L10.8974 5.55308C10.8974 5.55308 10.7153 7.53813 10.2788 7.86834C9.84228 8.19855 9.13063 8.09607 9.05473 7.53054C8.95605 6.78852 8.99209 6.02563 8.99209 6.02563C8.99209 6.02563 8.70743 6.12431 8.51197 6.31029C8.3165 6.49817 8.16469 6.54181 8.00527 7.34266C7.84587 8.14351 7.83257 9.1607 7.4701 9.7566C7.06969 10.4151 6.72239 10.9598 6.08096 11.4304C5.43953 11.901 5.23458 11.884 5.23458 11.884Z" fill="white"/>
<path d="M16.8659 8.73181C16.8659 8.73181 15.8544 10.9768 15.8866 11.0926C15.9189 11.2084 17.828 9.6769 17.828 9.6769C17.828 9.6769 17.6439 9.44726 17.401 9.17778C17.1107 8.85707 16.8659 8.73181 16.8659 8.73181Z" fill="white"/>
<path d="M10.1231 9.89892C10.1231 10.4303 9.9182 10.9579 9.3223 10.9047C8.87824 10.8649 8.51196 10.4303 8.51196 9.89892C8.51196 9.36754 8.87254 8.93676 9.31851 8.93676C9.76447 8.93676 10.1231 9.36756 10.1231 9.89892Z" fill="#0B0B0B"/>
<path d="M11.9222 18.9948L11.7628 20.4504C11.7628 20.4504 13.9946 19.6097 15.4236 18.6741C16.8526 17.7385 19.0976 15.4005 19.5777 14.8805C20.0579 14.3605 20.2989 13.9981 20.2989 13.9981C20.2989 13.9981 20.2116 13.6678 20.0711 13.3832C19.9326 13.0985 19.7637 12.8347 19.7637 12.8347C19.7637 12.8347 16.9854 15.7895 16.5983 16.097C16.2111 16.4044 15.1161 17.3798 14.2868 17.8334C13.4594 18.287 11.9222 18.9948 11.9222 18.9948Z" fill="white"/>
<path d="M12.5238 22.295C12.6718 22.147 15.2091 21.1867 16.1713 20.3308C16.511 20.0291 18.682 17.9928 19.4031 17.1787C20.1243 16.3645 20.8986 15.4555 20.8986 15.4555C20.8986 15.4555 20.9517 15.7231 21.0447 16.0305C21.1358 16.3285 21.1775 16.5524 21.1775 16.5524C21.1775 16.5524 20.2685 17.9283 19.7884 18.5432C19.3083 19.158 18.1715 20.3859 17.8906 20.6534C17.6098 20.921 17.3289 21.2417 16.5812 21.6953C16.3155 21.8566 15.3249 22.3633 15.3249 22.3633C15.3249 22.3633 14.5373 22.3766 14.0021 22.3899C13.7649 22.3937 12.4574 22.3614 12.5238 22.295Z" fill="white"/>
<path d="M21.5533 18.6741C21.5533 18.6741 20.7657 20.1961 20.4981 20.625C20.2306 21.052 19.443 22.1204 19.443 22.1204C19.443 22.1204 20.5247 22.0806 20.8986 22.0673C21.2724 22.054 21.8474 22.0008 21.8474 21.9344C21.8474 21.7826 21.7412 20.2113 21.7279 19.864C21.7146 19.5167 21.6615 18.4748 21.5533 18.6741Z" fill="white"/>
<path d="M12.8579 3.23215C12.577 3.20178 12.1898 4.15445 12.1101 4.58144C11.8691 5.85102 11.909 6.42415 12.6036 6.42415C13.3721 6.42415 13.3114 5.03501 13.3114 4.72756C13.3114 4.42202 13.0989 3.2587 12.8579 3.23215Z" fill="#454C50"/>
<path d="M5.50215 11.1173C4.95371 10.6163 4.09591 10.4398 3.66703 10.8858C3.24004 11.3317 2.98954 11.901 2.63466 12.2749C2.27789 12.6488 1.53017 13.2902 1.12025 14.1631C0.710331 15.0361 0.514867 16.1767 1.08419 17.1198C1.65351 18.063 2.81115 18.6874 4.23636 18.1883C5.66157 17.6892 6.23089 16.9585 6.28402 16.4253C6.33715 15.892 6.28402 15.1063 5.73177 14.6623C5.50784 14.482 5.10931 14.2353 5.25164 13.8956C5.39398 13.5559 6.53452 12.0623 5.50215 11.1173Z" fill="#464C4F"/>
<path d="M1.94007 14.8577C1.9211 15.1538 2.30444 15.0987 2.43919 15.3739C2.57203 15.6491 2.2608 16.1843 2.60808 16.2469C2.95538 16.3095 3.40134 15.6244 3.18689 14.9735C2.97245 14.3245 1.96665 14.4307 1.94007 14.8577Z" fill="#303030"/>
<path d="M2.53217 18.2604C2.53217 18.2604 3.48104 17.7973 3.90803 17.3969C4.32363 17.006 4.72786 16.5334 4.82464 16.3816C4.92332 16.2298 5.12827 15.9546 5.30476 16.078C5.48316 16.2032 5.40345 16.4253 5.28769 16.5942C5.17192 16.7631 4.87777 17.1825 4.41473 17.6095C4.0143 17.9795 3.81884 18.0725 3.52469 18.2319C3.31023 18.3477 3.10528 18.3648 3.10528 18.3648C3.10528 18.3648 2.93828 18.3667 2.76558 18.3382C2.69917 18.3287 2.53217 18.2604 2.53217 18.2604Z" fill="#303030"/>
</svg>
